<?xml version="1.0" standalone="no"?>
<!DOCTYPE svg PUBLIC "-//W3C//DTD SVG 20010904//EN"
 "http://www.w3.org/TR/2001/REC-SVG-20010904/DTD/svg10.dtd">
<svg version="1.0" xmlns="http://www.w3.org/2000/svg"
 width="700.000000pt" height="700.000000pt" viewBox="0 0 700.000000 700.000000"
 preserveAspectRatio="xMidYMid meet">
<metadata>
Created by potrace 1.11, written by Peter Selinger 2001-2013
</metadata>
<g transform="translate(0.000000,700.000000) scale(0.100000,-0.100000)"
fill="#000000" stroke="none">
<path d="M3206 6750 c-1094 -105 -2051 -738 -2574 -1702 -478 -881 -516 -1960
-101 -2879 162 -359 370 -659 659 -950 283 -285 562 -486 895 -645 1234 -589
2685 -359 3664 581 567 545 902 1227 992 2025 18 155 15 527 -5 695 -68 563
-266 1075 -596 1535 -234 326 -564 636 -910 855 -127 80 -449 240 -580 289
-225 82 -449 139 -695 176 -158 24 -589 35 -749 20z m1964 -2795 l0 -2105
-2105 0 c-1226 0 -2105 4 -2105 9 0 8 4198 4201 4206 4201 2 0 4 -947 4 -2105z"/>
</g>
</svg>
